<mxfile host="app.diagrams.net" modified="2021-08-13T06:40:00.464Z" agent="5.0 (Windows NT 10.0; Win64; x64) AppleWebKit/537.36 (KHTML, like Gecko) Chrome/92.0.4515.107 Safari/537.36" etag="_OvGZIHvU0HO8eZXtlcI" version="14.9.6" type="github">
  <diagram id="FCg6vdrEIml8s2iW_QjR" name="Page-1">
    <mxGraphModel dx="1038" dy="547" grid="1" gridSize="10" guides="1" tooltips="1" connect="1" arrows="1" fold="1" page="1" pageScale="1" pageWidth="827" pageHeight="1169" math="0" shadow="0">
      <root>
        <mxCell id="0" />
        <mxCell id="1" parent="0" />
        <mxCell id="M0Y_oXEKG9n1l0u5AV4N-1" value="" style="rounded=0;whiteSpace=wrap;html=1;fillColor=none;" vertex="1" parent="1">
          <mxGeometry x="74" y="310" width="130" height="90" as="geometry" />
        </mxCell>
        <mxCell id="M0Y_oXEKG9n1l0u5AV4N-2" value="" style="rounded=0;whiteSpace=wrap;html=1;fillColor=none;" vertex="1" parent="1">
          <mxGeometry x="73" y="20" width="730" height="110" as="geometry" />
        </mxCell>
        <mxCell id="M0Y_oXEKG9n1l0u5AV4N-3" value="" style="fontColor=#0066CC;verticalAlign=top;verticalLabelPosition=bottom;labelPosition=center;align=center;html=1;outlineConnect=0;fillColor=#CCCCCC;strokeColor=#6881B3;gradientColor=none;gradientDirection=north;strokeWidth=2;shape=mxgraph.networks.patch_panel;" vertex="1" parent="1">
          <mxGeometry x="380" y="70" width="100" height="35" as="geometry" />
        </mxCell>
        <mxCell id="M0Y_oXEKG9n1l0u5AV4N-4" value="ADP应用服务器" style="text;html=1;strokeColor=none;fillColor=none;align=center;verticalAlign=middle;whiteSpace=wrap;rounded=0;" vertex="1" parent="1">
          <mxGeometry x="385" y="40" width="90" height="20" as="geometry" />
        </mxCell>
        <mxCell id="M0Y_oXEKG9n1l0u5AV4N-9" value="&lt;font style=&quot;font-size: 18px&quot;&gt;炼&lt;br&gt;化&lt;br&gt;公&lt;br&gt;司&lt;/font&gt;" style="text;html=1;strokeColor=none;fillColor=none;align=center;verticalAlign=middle;whiteSpace=wrap;rounded=0;" vertex="1" parent="1">
          <mxGeometry x="74" y="25" width="40" height="100" as="geometry" />
        </mxCell>
        <mxCell id="M0Y_oXEKG9n1l0u5AV4N-14" value="&lt;font color=&quot;#000000&quot;&gt;&lt;b&gt;VPN&lt;/b&gt;&lt;/font&gt;" style="html=1;outlineConnect=0;fillColor=#CCCCCC;strokeColor=#6881B3;gradientColor=none;gradientDirection=north;strokeWidth=2;shape=mxgraph.networks.bus;gradientColor=none;gradientDirection=north;fontColor=#ffffff;perimeter=backbonePerimeter;backboneSize=20;" vertex="1" parent="1">
          <mxGeometry x="70" y="210" width="730" height="21.16" as="geometry" />
        </mxCell>
        <mxCell id="M0Y_oXEKG9n1l0u5AV4N-15" value="" style="shape=flexArrow;endArrow=classic;startArrow=classic;html=1;entryX=0.5;entryY=1;entryDx=0;entryDy=0;strokeColor=#663300;fillColor=#663300;" edge="1" parent="1">
          <mxGeometry width="100" height="100" relative="1" as="geometry">
            <mxPoint x="434" y="210.58000000000004" as="sourcePoint" />
            <mxPoint x="434" y="130" as="targetPoint" />
          </mxGeometry>
        </mxCell>
        <mxCell id="M0Y_oXEKG9n1l0u5AV4N-16" value="" style="fontColor=#0066CC;verticalAlign=top;verticalLabelPosition=bottom;labelPosition=center;align=center;html=1;outlineConnect=0;fillColor=#CCCCCC;strokeColor=#6881B3;gradientColor=none;gradientDirection=north;strokeWidth=2;shape=mxgraph.networks.patch_panel;" vertex="1" parent="1">
          <mxGeometry x="84" y="350" width="100" height="35" as="geometry" />
        </mxCell>
        <mxCell id="M0Y_oXEKG9n1l0u5AV4N-17" value="ADP应用服务器" style="text;html=1;strokeColor=none;fillColor=none;align=center;verticalAlign=middle;whiteSpace=wrap;rounded=0;" vertex="1" parent="1">
          <mxGeometry x="89" y="320" width="90" height="20" as="geometry" />
        </mxCell>
        <mxCell id="M0Y_oXEKG9n1l0u5AV4N-28" value="&lt;b&gt;&lt;font style=&quot;font-size: 14px&quot;&gt;延安炼油厂&lt;/font&gt;&lt;/b&gt;" style="text;html=1;strokeColor=none;fillColor=none;align=center;verticalAlign=middle;whiteSpace=wrap;rounded=0;" vertex="1" parent="1">
          <mxGeometry x="99" y="410" width="80" height="20" as="geometry" />
        </mxCell>
        <mxCell id="M0Y_oXEKG9n1l0u5AV4N-29" value="" style="rounded=0;whiteSpace=wrap;html=1;fillColor=none;" vertex="1" parent="1">
          <mxGeometry x="224" y="310" width="130" height="90" as="geometry" />
        </mxCell>
        <mxCell id="M0Y_oXEKG9n1l0u5AV4N-30" value="" style="fontColor=#0066CC;verticalAlign=top;verticalLabelPosition=bottom;labelPosition=center;align=center;html=1;outlineConnect=0;fillColor=#CCCCCC;strokeColor=#6881B3;gradientColor=none;gradientDirection=north;strokeWidth=2;shape=mxgraph.networks.patch_panel;" vertex="1" parent="1">
          <mxGeometry x="234" y="350" width="100" height="35" as="geometry" />
        </mxCell>
        <mxCell id="M0Y_oXEKG9n1l0u5AV4N-31" value="ADP应用服务器" style="text;html=1;strokeColor=none;fillColor=none;align=center;verticalAlign=middle;whiteSpace=wrap;rounded=0;" vertex="1" parent="1">
          <mxGeometry x="239" y="320" width="90" height="20" as="geometry" />
        </mxCell>
        <mxCell id="M0Y_oXEKG9n1l0u5AV4N-42" value="&lt;b&gt;&lt;font style=&quot;font-size: 14px&quot;&gt;延安石油化工厂&lt;/font&gt;&lt;/b&gt;" style="text;html=1;strokeColor=none;fillColor=none;align=center;verticalAlign=middle;whiteSpace=wrap;rounded=0;" vertex="1" parent="1">
          <mxGeometry x="244" y="410" width="100" height="20" as="geometry" />
        </mxCell>
        <mxCell id="M0Y_oXEKG9n1l0u5AV4N-43" value="" style="rounded=0;whiteSpace=wrap;html=1;fillColor=none;" vertex="1" parent="1">
          <mxGeometry x="374" y="310" width="130" height="90" as="geometry" />
        </mxCell>
        <mxCell id="M0Y_oXEKG9n1l0u5AV4N-44" value="" style="fontColor=#0066CC;verticalAlign=top;verticalLabelPosition=bottom;labelPosition=center;align=center;html=1;outlineConnect=0;fillColor=#CCCCCC;strokeColor=#6881B3;gradientColor=none;gradientDirection=north;strokeWidth=2;shape=mxgraph.networks.patch_panel;" vertex="1" parent="1">
          <mxGeometry x="384" y="350" width="100" height="35" as="geometry" />
        </mxCell>
        <mxCell id="M0Y_oXEKG9n1l0u5AV4N-45" value="ADP应用服务器" style="text;html=1;strokeColor=none;fillColor=none;align=center;verticalAlign=middle;whiteSpace=wrap;rounded=0;" vertex="1" parent="1">
          <mxGeometry x="389" y="320" width="90" height="20" as="geometry" />
        </mxCell>
        <mxCell id="M0Y_oXEKG9n1l0u5AV4N-56" value="&lt;b&gt;&lt;font style=&quot;font-size: 14px&quot;&gt;永坪炼油厂&lt;/font&gt;&lt;/b&gt;" style="text;html=1;strokeColor=none;fillColor=none;align=center;verticalAlign=middle;whiteSpace=wrap;rounded=0;" vertex="1" parent="1">
          <mxGeometry x="399" y="410" width="80" height="20" as="geometry" />
        </mxCell>
        <mxCell id="M0Y_oXEKG9n1l0u5AV4N-57" value="" style="rounded=0;whiteSpace=wrap;html=1;fillColor=none;" vertex="1" parent="1">
          <mxGeometry x="524" y="310" width="130" height="90" as="geometry" />
        </mxCell>
        <mxCell id="M0Y_oXEKG9n1l0u5AV4N-58" value="" style="fontColor=#0066CC;verticalAlign=top;verticalLabelPosition=bottom;labelPosition=center;align=center;html=1;outlineConnect=0;fillColor=#CCCCCC;strokeColor=#6881B3;gradientColor=none;gradientDirection=north;strokeWidth=2;shape=mxgraph.networks.patch_panel;" vertex="1" parent="1">
          <mxGeometry x="534" y="350" width="100" height="35" as="geometry" />
        </mxCell>
        <mxCell id="M0Y_oXEKG9n1l0u5AV4N-59" value="ADP应用服务器" style="text;html=1;strokeColor=none;fillColor=none;align=center;verticalAlign=middle;whiteSpace=wrap;rounded=0;" vertex="1" parent="1">
          <mxGeometry x="539" y="320" width="90" height="20" as="geometry" />
        </mxCell>
        <mxCell id="M0Y_oXEKG9n1l0u5AV4N-70" value="&lt;b&gt;&lt;font style=&quot;font-size: 14px&quot;&gt;榆林炼油厂&lt;/font&gt;&lt;/b&gt;" style="text;html=1;strokeColor=none;fillColor=none;align=center;verticalAlign=middle;whiteSpace=wrap;rounded=0;" vertex="1" parent="1">
          <mxGeometry x="549" y="410" width="80" height="20" as="geometry" />
        </mxCell>
        <mxCell id="M0Y_oXEKG9n1l0u5AV4N-71" value="" style="rounded=0;whiteSpace=wrap;html=1;fillColor=none;" vertex="1" parent="1">
          <mxGeometry x="674" y="310" width="130" height="90" as="geometry" />
        </mxCell>
        <mxCell id="M0Y_oXEKG9n1l0u5AV4N-72" value="" style="fontColor=#0066CC;verticalAlign=top;verticalLabelPosition=bottom;labelPosition=center;align=center;html=1;outlineConnect=0;fillColor=#CCCCCC;strokeColor=#6881B3;gradientColor=none;gradientDirection=north;strokeWidth=2;shape=mxgraph.networks.patch_panel;" vertex="1" parent="1">
          <mxGeometry x="684" y="350" width="100" height="35" as="geometry" />
        </mxCell>
        <mxCell id="M0Y_oXEKG9n1l0u5AV4N-73" value="ADP应用服务器" style="text;html=1;strokeColor=none;fillColor=none;align=center;verticalAlign=middle;whiteSpace=wrap;rounded=0;" vertex="1" parent="1">
          <mxGeometry x="689" y="320" width="90" height="20" as="geometry" />
        </mxCell>
        <mxCell id="M0Y_oXEKG9n1l0u5AV4N-84" value="&lt;b&gt;&lt;font style=&quot;font-size: 14px&quot;&gt;油气化工厂公司&lt;/font&gt;&lt;/b&gt;" style="text;html=1;strokeColor=none;fillColor=none;align=center;verticalAlign=middle;whiteSpace=wrap;rounded=0;" vertex="1" parent="1">
          <mxGeometry x="689" y="410" width="105" height="20" as="geometry" />
        </mxCell>
        <mxCell id="M0Y_oXEKG9n1l0u5AV4N-85" value="" style="shape=flexArrow;endArrow=classic;startArrow=classic;html=1;entryX=0.5;entryY=1;entryDx=0;entryDy=0;strokeColor=#663300;fillColor=#663300;" edge="1" parent="1">
          <mxGeometry width="100" height="100" relative="1" as="geometry">
            <mxPoint x="134" y="310" as="sourcePoint" />
            <mxPoint x="134" y="230" as="targetPoint" />
          </mxGeometry>
        </mxCell>
        <mxCell id="M0Y_oXEKG9n1l0u5AV4N-86" value="" style="shape=flexArrow;endArrow=classic;startArrow=classic;html=1;entryX=0.5;entryY=1;entryDx=0;entryDy=0;strokeColor=#663300;fillColor=#663300;" edge="1" parent="1">
          <mxGeometry width="100" height="100" relative="1" as="geometry">
            <mxPoint x="284" y="310" as="sourcePoint" />
            <mxPoint x="284" y="230" as="targetPoint" />
          </mxGeometry>
        </mxCell>
        <mxCell id="M0Y_oXEKG9n1l0u5AV4N-87" value="" style="shape=flexArrow;endArrow=classic;startArrow=classic;html=1;entryX=0.5;entryY=1;entryDx=0;entryDy=0;strokeColor=#663300;fillColor=#663300;" edge="1" parent="1">
          <mxGeometry width="100" height="100" relative="1" as="geometry">
            <mxPoint x="435" y="310" as="sourcePoint" />
            <mxPoint x="435" y="230" as="targetPoint" />
          </mxGeometry>
        </mxCell>
        <mxCell id="M0Y_oXEKG9n1l0u5AV4N-88" value="" style="shape=flexArrow;endArrow=classic;startArrow=classic;html=1;entryX=0.5;entryY=1;entryDx=0;entryDy=0;strokeColor=#663300;fillColor=#663300;" edge="1" parent="1">
          <mxGeometry width="100" height="100" relative="1" as="geometry">
            <mxPoint x="584" y="310" as="sourcePoint" />
            <mxPoint x="584" y="230" as="targetPoint" />
          </mxGeometry>
        </mxCell>
        <mxCell id="M0Y_oXEKG9n1l0u5AV4N-89" value="" style="shape=flexArrow;endArrow=classic;startArrow=classic;html=1;entryX=0.5;entryY=1;entryDx=0;entryDy=0;strokeColor=#663300;fillColor=#663300;" edge="1" parent="1">
          <mxGeometry width="100" height="100" relative="1" as="geometry">
            <mxPoint x="744" y="310" as="sourcePoint" />
            <mxPoint x="744" y="230" as="targetPoint" />
          </mxGeometry>
        </mxCell>
      </root>
    </mxGraphModel>
  </diagram>
</mxfile>
